<mxfile host="app.diagrams.net" modified="2022-05-16T10:57:24.055Z" agent="5.0 (Windows NT 10.0; Win64; x64) AppleWebKit/537.36 (KHTML, like Gecko) Chrome/101.0.4951.67 Safari/537.36" etag="5YtAHiOkOuAhA4tWIFrq" version="18.0.4" type="github">
  <diagram id="UjoLvAjGHmF-nPJRObpb" name="Page-1">
    <mxGraphModel dx="1038" dy="547" grid="1" gridSize="10" guides="1" tooltips="1" connect="1" arrows="1" fold="1" page="1" pageScale="1" pageWidth="827" pageHeight="1169" math="0" shadow="0">
      <root>
        <mxCell id="0" />
        <mxCell id="1" parent="0" />
        <mxCell id="2thq1PxMpm1M-xolVPc5-1" value="" style="endArrow=classic;html=1;rounded=0;" parent="1" edge="1">
          <mxGeometry width="50" height="50" relative="1" as="geometry">
            <mxPoint x="200" y="360" as="sourcePoint" />
            <mxPoint x="660" y="360" as="targetPoint" />
          </mxGeometry>
        </mxCell>
        <mxCell id="2thq1PxMpm1M-xolVPc5-2" value="" style="endArrow=classic;html=1;rounded=0;" parent="1" edge="1">
          <mxGeometry width="50" height="50" relative="1" as="geometry">
            <mxPoint x="200" y="360" as="sourcePoint" />
            <mxPoint x="200" y="70" as="targetPoint" />
          </mxGeometry>
        </mxCell>
        <mxCell id="2thq1PxMpm1M-xolVPc5-3" value="" style="rounded=0;whiteSpace=wrap;html=1;glass=0;sketch=0;" parent="1" vertex="1">
          <mxGeometry x="200" y="160" width="40" height="200" as="geometry" />
        </mxCell>
        <mxCell id="2thq1PxMpm1M-xolVPc5-5" value="" style="rounded=0;whiteSpace=wrap;html=1;shadow=0;glass=0;sketch=0;strokeWidth=1;fillColor=#B3B3B3;strokeColor=#36393d;" parent="1" vertex="1">
          <mxGeometry x="200" y="240" width="40" height="120" as="geometry" />
        </mxCell>
        <mxCell id="2thq1PxMpm1M-xolVPc5-6" value="&lt;pre&gt;&lt;font style=&quot;&quot; face=&quot;Times New Roman&quot;&gt;&lt;font style=&quot;font-size: 18px;&quot;&gt;σ&lt;/font&gt;&lt;span style=&quot;&quot; lang=&quot;EN-US&quot;&gt;&lt;sub style=&quot;&quot;&gt;&lt;font style=&quot;font-size: 13px;&quot;&gt;1&lt;/font&gt;&lt;/sub&gt;&lt;sup style=&quot;font-size: 12pt;&quot;&gt;2&lt;/sup&gt;&lt;/span&gt;&lt;/font&gt;&lt;/pre&gt;" style="text;html=1;strokeColor=none;fillColor=none;align=center;verticalAlign=middle;whiteSpace=wrap;rounded=0;shadow=0;glass=0;sketch=0;" parent="1" vertex="1">
          <mxGeometry x="190" y="280" width="60" height="30" as="geometry" />
        </mxCell>
        <mxCell id="2thq1PxMpm1M-xolVPc5-7" value="&lt;pre style=&quot;font-size: 15px;&quot;&gt;&lt;font style=&quot;font-size: 15px;&quot; face=&quot;Times New Roman&quot;&gt;P&lt;sub&gt;1&lt;/sub&gt;&lt;/font&gt;&lt;/pre&gt;" style="text;html=1;strokeColor=none;fillColor=none;align=center;verticalAlign=middle;whiteSpace=wrap;rounded=0;shadow=0;glass=0;sketch=0;" parent="1" vertex="1">
          <mxGeometry x="190" y="160" width="60" height="30" as="geometry" />
        </mxCell>
        <mxCell id="2thq1PxMpm1M-xolVPc5-8" value="" style="rounded=0;whiteSpace=wrap;html=1;shadow=0;glass=0;sketch=0;strokeWidth=1;fillColor=default;gradientColor=none;" parent="1" vertex="1">
          <mxGeometry x="240" y="160" width="40" height="200" as="geometry" />
        </mxCell>
        <mxCell id="2thq1PxMpm1M-xolVPc5-9" value="" style="rounded=0;whiteSpace=wrap;html=1;shadow=0;glass=0;sketch=0;strokeWidth=1;fillColor=#B3B3B3;strokeColor=#36393d;" parent="1" vertex="1">
          <mxGeometry x="240" y="280" width="40" height="80" as="geometry" />
        </mxCell>
        <mxCell id="2thq1PxMpm1M-xolVPc5-10" value="&lt;pre&gt;&lt;font style=&quot;&quot; face=&quot;Times New Roman&quot;&gt;&lt;font style=&quot;font-size: 18px;&quot;&gt;σ&lt;/font&gt;&lt;sub style=&quot;&quot;&gt;&lt;font style=&quot;font-size: 13px;&quot;&gt;2&lt;/font&gt;&lt;/sub&gt;&lt;span style=&quot;font-size: 12pt;&quot; lang=&quot;EN-US&quot;&gt;&lt;sup&gt;2&lt;/sup&gt;&lt;/span&gt;&lt;/font&gt;&lt;/pre&gt;" style="text;html=1;strokeColor=none;fillColor=none;align=center;verticalAlign=middle;whiteSpace=wrap;rounded=0;shadow=0;glass=0;sketch=0;" parent="1" vertex="1">
          <mxGeometry x="230" y="280" width="60" height="30" as="geometry" />
        </mxCell>
        <mxCell id="2thq1PxMpm1M-xolVPc5-11" value="&lt;pre style=&quot;font-size: 15px;&quot;&gt;&lt;font style=&quot;font-size: 15px;&quot; face=&quot;Times New Roman&quot;&gt;P&lt;sub&gt;2&lt;/sub&gt;&lt;/font&gt;&lt;/pre&gt;" style="text;html=1;strokeColor=none;fillColor=none;align=center;verticalAlign=middle;whiteSpace=wrap;rounded=0;shadow=0;glass=0;sketch=0;" parent="1" vertex="1">
          <mxGeometry x="230" y="160" width="60" height="30" as="geometry" />
        </mxCell>
        <mxCell id="2thq1PxMpm1M-xolVPc5-12" value="" style="rounded=0;whiteSpace=wrap;html=1;shadow=0;glass=0;sketch=0;strokeWidth=1;fillColor=#FFFFFF;gradientColor=none;" parent="1" vertex="1">
          <mxGeometry x="280" y="160" width="40" height="200" as="geometry" />
        </mxCell>
        <mxCell id="2thq1PxMpm1M-xolVPc5-13" value="" style="rounded=0;whiteSpace=wrap;html=1;shadow=0;glass=0;sketch=0;strokeWidth=1;fillColor=#B3B3B3;gradientColor=none;" parent="1" vertex="1">
          <mxGeometry x="280" y="220" width="40" height="140" as="geometry" />
        </mxCell>
        <mxCell id="2thq1PxMpm1M-xolVPc5-14" value="&lt;pre&gt;&lt;font style=&quot;&quot; face=&quot;Times New Roman&quot;&gt;&lt;font style=&quot;font-size: 18px;&quot;&gt;σ&lt;/font&gt;&lt;sub style=&quot;&quot;&gt;&lt;font style=&quot;font-size: 13px;&quot;&gt;3&lt;/font&gt;&lt;/sub&gt;&lt;span style=&quot;font-size: 12pt;&quot; lang=&quot;EN-US&quot;&gt;&lt;sup&gt;2&lt;/sup&gt;&lt;/span&gt;&lt;/font&gt;&lt;/pre&gt;" style="text;html=1;strokeColor=none;fillColor=none;align=center;verticalAlign=middle;whiteSpace=wrap;rounded=0;shadow=0;glass=0;sketch=0;" parent="1" vertex="1">
          <mxGeometry x="270" y="280" width="60" height="30" as="geometry" />
        </mxCell>
        <mxCell id="2thq1PxMpm1M-xolVPc5-15" value="&lt;pre style=&quot;font-size: 15px;&quot;&gt;&lt;font style=&quot;font-size: 15px;&quot; face=&quot;Times New Roman&quot;&gt;P&lt;sub&gt;3&lt;/sub&gt;&lt;/font&gt;&lt;/pre&gt;" style="text;html=1;strokeColor=none;fillColor=none;align=center;verticalAlign=middle;whiteSpace=wrap;rounded=0;shadow=0;glass=0;sketch=0;" parent="1" vertex="1">
          <mxGeometry x="270" y="160" width="60" height="30" as="geometry" />
        </mxCell>
        <mxCell id="2thq1PxMpm1M-xolVPc5-16" value="" style="rounded=0;whiteSpace=wrap;html=1;shadow=0;glass=0;sketch=0;strokeWidth=1;fillColor=#FFFFFF;gradientColor=none;" parent="1" vertex="1">
          <mxGeometry x="320" y="160" width="40" height="200" as="geometry" />
        </mxCell>
        <mxCell id="2thq1PxMpm1M-xolVPc5-17" value="" style="rounded=0;whiteSpace=wrap;html=1;shadow=0;glass=0;sketch=0;strokeWidth=1;fillColor=#B3B3B3;gradientColor=none;" parent="1" vertex="1">
          <mxGeometry x="320" y="190" width="40" height="170" as="geometry" />
        </mxCell>
        <mxCell id="2thq1PxMpm1M-xolVPc5-18" value="&lt;pre style=&quot;font-size: 15px;&quot;&gt;&lt;font style=&quot;font-size: 15px;&quot; face=&quot;Times New Roman&quot;&gt;P&lt;sub&gt;4&lt;/sub&gt;&lt;/font&gt;&lt;/pre&gt;" style="text;html=1;strokeColor=none;fillColor=none;align=center;verticalAlign=middle;whiteSpace=wrap;rounded=0;shadow=0;glass=0;sketch=0;" parent="1" vertex="1">
          <mxGeometry x="310" y="160" width="60" height="30" as="geometry" />
        </mxCell>
        <mxCell id="2thq1PxMpm1M-xolVPc5-19" value="&lt;pre&gt;&lt;font style=&quot;&quot; face=&quot;Times New Roman&quot;&gt;&lt;font style=&quot;font-size: 18px;&quot;&gt;σ&lt;/font&gt;&lt;sub style=&quot;&quot;&gt;&lt;font style=&quot;font-size: 13px;&quot;&gt;4&lt;/font&gt;&lt;/sub&gt;&lt;span style=&quot;font-size: 12pt;&quot; lang=&quot;EN-US&quot;&gt;&lt;sup&gt;2&lt;/sup&gt;&lt;/span&gt;&lt;/font&gt;&lt;/pre&gt;" style="text;html=1;strokeColor=none;fillColor=none;align=center;verticalAlign=middle;whiteSpace=wrap;rounded=0;shadow=0;glass=0;sketch=0;" parent="1" vertex="1">
          <mxGeometry x="310" y="280" width="60" height="30" as="geometry" />
        </mxCell>
        <mxCell id="2thq1PxMpm1M-xolVPc5-20" value="" style="rounded=0;whiteSpace=wrap;html=1;shadow=0;glass=0;sketch=0;strokeWidth=1;fillColor=#FFFFFF;gradientColor=none;" parent="1" vertex="1">
          <mxGeometry x="360" y="160" width="40" height="200" as="geometry" />
        </mxCell>
        <mxCell id="2thq1PxMpm1M-xolVPc5-21" value="" style="rounded=0;whiteSpace=wrap;html=1;shadow=0;glass=0;sketch=0;strokeWidth=1;fillColor=#FFFFFF;gradientColor=none;" parent="1" vertex="1">
          <mxGeometry x="400" y="160" width="40" height="200" as="geometry" />
        </mxCell>
        <mxCell id="2thq1PxMpm1M-xolVPc5-22" value="" style="rounded=0;whiteSpace=wrap;html=1;shadow=0;glass=0;sketch=0;strokeWidth=1;fillColor=#B3B3B3;gradientColor=none;" parent="1" vertex="1">
          <mxGeometry x="440" y="150" width="40" height="210" as="geometry" />
        </mxCell>
        <mxCell id="2thq1PxMpm1M-xolVPc5-23" value="" style="rounded=0;whiteSpace=wrap;html=1;shadow=0;glass=0;sketch=0;strokeWidth=1;fillColor=#B3B3B3;gradientColor=none;" parent="1" vertex="1">
          <mxGeometry x="480" y="130" width="40" height="230" as="geometry" />
        </mxCell>
        <mxCell id="2thq1PxMpm1M-xolVPc5-24" value="" style="rounded=0;whiteSpace=wrap;html=1;shadow=0;glass=0;sketch=0;strokeWidth=1;fillColor=#B3B3B3;gradientColor=none;" parent="1" vertex="1">
          <mxGeometry x="360" y="260" width="40" height="100" as="geometry" />
        </mxCell>
        <mxCell id="2thq1PxMpm1M-xolVPc5-25" value="" style="rounded=0;whiteSpace=wrap;html=1;shadow=0;glass=0;sketch=0;strokeWidth=1;fillColor=#B3B3B3;gradientColor=none;" parent="1" vertex="1">
          <mxGeometry x="400" y="220" width="40" height="140" as="geometry" />
        </mxCell>
        <mxCell id="2thq1PxMpm1M-xolVPc5-26" value="&lt;pre style=&quot;font-size: 15px;&quot;&gt;&lt;font style=&quot;font-size: 15px;&quot; face=&quot;Times New Roman&quot;&gt;P&lt;sub&gt;5&lt;/sub&gt;&lt;/font&gt;&lt;/pre&gt;" style="text;html=1;strokeColor=none;fillColor=none;align=center;verticalAlign=middle;whiteSpace=wrap;rounded=0;shadow=0;glass=0;sketch=0;" parent="1" vertex="1">
          <mxGeometry x="350" y="160" width="60" height="30" as="geometry" />
        </mxCell>
        <mxCell id="2thq1PxMpm1M-xolVPc5-27" value="&lt;pre&gt;&lt;font style=&quot;&quot; face=&quot;Times New Roman&quot;&gt;&lt;font style=&quot;font-size: 18px;&quot;&gt;σ&lt;/font&gt;&lt;sub style=&quot;&quot;&gt;&lt;font style=&quot;font-size: 13px;&quot;&gt;5&lt;/font&gt;&lt;/sub&gt;&lt;span style=&quot;font-size: 12pt;&quot; lang=&quot;EN-US&quot;&gt;&lt;sup&gt;2&lt;/sup&gt;&lt;/span&gt;&lt;/font&gt;&lt;/pre&gt;" style="text;html=1;strokeColor=none;fillColor=none;align=center;verticalAlign=middle;whiteSpace=wrap;rounded=0;shadow=0;glass=0;sketch=0;" parent="1" vertex="1">
          <mxGeometry x="350" y="280" width="60" height="30" as="geometry" />
        </mxCell>
        <mxCell id="2thq1PxMpm1M-xolVPc5-28" value="&lt;pre&gt;&lt;font style=&quot;&quot; face=&quot;Times New Roman&quot;&gt;&lt;font style=&quot;font-size: 18px;&quot;&gt;σ&lt;/font&gt;&lt;sub style=&quot;&quot;&gt;&lt;font style=&quot;font-size: 13px;&quot;&gt;6&lt;/font&gt;&lt;/sub&gt;&lt;span style=&quot;font-size: 12pt;&quot; lang=&quot;EN-US&quot;&gt;&lt;sup&gt;2&lt;/sup&gt;&lt;/span&gt;&lt;/font&gt;&lt;/pre&gt;" style="text;html=1;strokeColor=none;fillColor=none;align=center;verticalAlign=middle;whiteSpace=wrap;rounded=0;shadow=0;glass=0;sketch=0;" parent="1" vertex="1">
          <mxGeometry x="390" y="280" width="60" height="30" as="geometry" />
        </mxCell>
        <mxCell id="2thq1PxMpm1M-xolVPc5-29" value="&lt;pre style=&quot;font-size: 15px;&quot;&gt;&lt;font style=&quot;font-size: 15px;&quot; face=&quot;Times New Roman&quot;&gt;P&lt;sub&gt;6&lt;/sub&gt;&lt;/font&gt;&lt;/pre&gt;" style="text;html=1;strokeColor=none;fillColor=none;align=center;verticalAlign=middle;whiteSpace=wrap;rounded=0;shadow=0;glass=0;sketch=0;" parent="1" vertex="1">
          <mxGeometry x="390" y="160" width="60" height="30" as="geometry" />
        </mxCell>
        <mxCell id="2thq1PxMpm1M-xolVPc5-30" value="&lt;pre&gt;&lt;font style=&quot;&quot; face=&quot;Times New Roman&quot;&gt;&lt;font style=&quot;font-size: 18px;&quot;&gt;σ&lt;/font&gt;&lt;sub style=&quot;&quot;&gt;&lt;font style=&quot;font-size: 13px;&quot;&gt;7&lt;/font&gt;&lt;/sub&gt;&lt;span style=&quot;font-size: 12pt;&quot; lang=&quot;EN-US&quot;&gt;&lt;sup&gt;2&lt;/sup&gt;&lt;/span&gt;&lt;/font&gt;&lt;/pre&gt;" style="text;html=1;strokeColor=none;fillColor=none;align=center;verticalAlign=middle;whiteSpace=wrap;rounded=0;shadow=0;glass=0;sketch=0;" parent="1" vertex="1">
          <mxGeometry x="430" y="280" width="60" height="30" as="geometry" />
        </mxCell>
        <mxCell id="2thq1PxMpm1M-xolVPc5-31" value="&lt;pre&gt;&lt;font style=&quot;&quot; face=&quot;Times New Roman&quot;&gt;&lt;font style=&quot;font-size: 18px;&quot;&gt;σ&lt;/font&gt;&lt;sub style=&quot;&quot;&gt;&lt;font style=&quot;font-size: 13px;&quot;&gt;8&lt;/font&gt;&lt;/sub&gt;&lt;span style=&quot;font-size: 12pt;&quot; lang=&quot;EN-US&quot;&gt;&lt;sup&gt;2&lt;/sup&gt;&lt;/span&gt;&lt;/font&gt;&lt;/pre&gt;" style="text;html=1;strokeColor=none;fillColor=none;align=center;verticalAlign=middle;whiteSpace=wrap;rounded=0;shadow=0;glass=0;sketch=0;" parent="1" vertex="1">
          <mxGeometry x="470" y="280" width="60" height="30" as="geometry" />
        </mxCell>
        <mxCell id="2thq1PxMpm1M-xolVPc5-32" value="&lt;h4 style=&quot;font-size: 15px&quot;&gt;功&lt;br&gt;率&lt;/h4&gt;" style="text;html=1;strokeColor=none;fillColor=none;align=center;verticalAlign=middle;whiteSpace=wrap;rounded=0;shadow=0;glass=0;sketch=0;rotation=0;" parent="1" vertex="1">
          <mxGeometry x="140" y="90" width="60" height="30" as="geometry" />
        </mxCell>
        <mxCell id="2thq1PxMpm1M-xolVPc5-33" value="&lt;h4&gt;子信道&lt;/h4&gt;" style="text;html=1;strokeColor=none;fillColor=none;align=center;verticalAlign=middle;whiteSpace=wrap;rounded=0;shadow=0;glass=0;sketch=0;fontSize=15;" parent="1" vertex="1">
          <mxGeometry x="580" y="370" width="60" height="30" as="geometry" />
        </mxCell>
      </root>
    </mxGraphModel>
  </diagram>
</mxfile>
